<mxfile host="app.diagrams.net" modified="2020-12-10T03:14:16.984Z" agent="5.0 (X11; Linux x86_64) AppleWebKit/537.36 (KHTML, like Gecko) Chrome/87.0.4280.88 Safari/537.36" etag="MInJhjCRZdKkhOEyLrBk" version="13.10.1" type="github">
  <diagram id="PqCvcaHbQUNJ0y0y_sjk" name="Page-1">
    <mxGraphModel dx="1038" dy="493" grid="1" gridSize="10" guides="1" tooltips="1" connect="1" arrows="1" fold="1" page="1" pageScale="1" pageWidth="827" pageHeight="1169" math="0" shadow="0">
      <root>
        <mxCell id="0" />
        <mxCell id="1" parent="0" />
        <mxCell id="A4y6m8ZNibAs1Q4yDd4b-3" style="edgeStyle=orthogonalEdgeStyle;rounded=0;orthogonalLoop=1;jettySize=auto;html=1;exitX=1;exitY=0.5;exitDx=0;exitDy=0;entryX=0;entryY=0.5;entryDx=0;entryDy=0;" edge="1" parent="1" source="A4y6m8ZNibAs1Q4yDd4b-1" target="A4y6m8ZNibAs1Q4yDd4b-2">
          <mxGeometry relative="1" as="geometry" />
        </mxCell>
        <mxCell id="A4y6m8ZNibAs1Q4yDd4b-1" value="" style="rounded=0;whiteSpace=wrap;html=1;" vertex="1" parent="1">
          <mxGeometry x="150" y="160" width="120" height="60" as="geometry" />
        </mxCell>
        <mxCell id="A4y6m8ZNibAs1Q4yDd4b-2" value="" style="triangle;whiteSpace=wrap;html=1;" vertex="1" parent="1">
          <mxGeometry x="360" y="150" width="60" height="80" as="geometry" />
        </mxCell>
      </root>
    </mxGraphModel>
  </diagram>
</mxfile>
